<?xml version="1.0" encoding="utf-8"?>
<!-- Generator: Adobe Illustrator 28.1.0, SVG Export Plug-In . SVG Version: 6.00 Build 0)  -->
<svg version="1.1" id="Layer_1" xmlns="http://www.w3.org/2000/svg" xmlns:xlink="http://www.w3.org/1999/xlink" x="0px" y="0px"
	 viewBox="0 0 24 24" style="enable-background:new 0 0 24 24;" xml:space="preserve">
<style type="text/css">
	.st0{fill:none;stroke:#FFFFFF;stroke-width:2;}
</style>
<path class="st0" d="M12,8c3.5,0,6,0.8,6.8,1.1c0.2,0.1,0.4,0.2,0.5,0.4l1.2,1.2c0.3,0.3,0.5,0.8,0.5,1.3l0,1.3c0,1-0.8,1.8-1.8,1.8
	l-1.8,0c-0.9,0-1.6-0.6-1.8-1.5l-0.1-0.7c-0.1-0.6-0.6-1.2-1.2-1.3c-0.7-0.2-1.5-0.3-2.2-0.3c-0.7,0-1.5,0.2-2.2,0.3
	c-0.6,0.2-1.1,0.7-1.2,1.3l-0.1,0.7C8.3,14.4,7.5,15,6.7,15l-1.8,0c-1,0-1.8-0.8-1.8-1.8l0-1.3c0-0.5,0.2-0.9,0.5-1.3l1.2-1.2
	C4.8,9.3,5,9.2,5.2,9.1C6,8.8,8.5,8,12,8z"/>
</svg>
