<?xml version="1.0" encoding="utf-8"?>
<!-- Generator: Adobe Illustrator 28.1.0, SVG Export Plug-In . SVG Version: 6.00 Build 0)  -->
<svg version="1.1" id="Layer_1" xmlns="http://www.w3.org/2000/svg" xmlns:xlink="http://www.w3.org/1999/xlink" x="0px" y="0px"
	 viewBox="0 0 24 24" style="enable-background:new 0 0 24 24;" xml:space="preserve">
<style type="text/css">
	.st0{fill:none;stroke:#FFFFFF;stroke-width:2;}
	.st1{fill:none;stroke:#FFFFFF;stroke-width:2;stroke-linecap:round;stroke-linejoin:round;}
</style>
<path class="st0" d="M12,2L12,2c1.7,0,3,1.3,3,3v6c0,1.7-1.3,3-3,3l0,0c-1.7,0-3-1.3-3-3V5C9,3.3,10.3,2,12,2z"/>
<path class="st1" d="M5,10v1c0,3.9,3.1,7,7,7l0,0l0,0c3.9,0,7-3.1,7-7v-1"/>
<path class="st1" d="M12,18v4 M12,22H9 M12,22h3"/>
</svg>
