<?xml version="1.0" encoding="UTF-8"?><svg id="Layer_1" xmlns="http://www.w3.org/2000/svg" viewBox="0 0 78.69 39.65"><defs><style>.cls-1{fill:#fff;stroke-width:0px;}</style></defs><path class="cls-1" d="M0,39.25v-16.06h2.28v16.06H0Z"/><path class="cls-1" d="M6.48,39.25v-11.78h2.14v2.2c.54-.79,1.17-1.4,1.89-1.83.72-.43,1.47-.65,2.24-.65,1,0,1.81.32,2.43.95s.93,1.51.93,2.63v8.47h-2.14v-7.78c0-.82-.07-1.36-.22-1.62-.15-.26-.35-.46-.61-.6-.26-.14-.54-.21-.84-.21-.53,0-1.1.16-1.71.49-.61.33-1.27,1.02-1.99,2.08v7.63h-2.14Z"/><path class="cls-1" d="M19.83,38.83v-1.96c1.4.69,2.61,1.04,3.65,1.04.61,0,1.12-.17,1.52-.5.41-.33.61-.75.61-1.25,0-.31-.1-.62-.3-.91-.2-.3-.67-.6-1.4-.9l-1.25-.53c-.96-.4-1.67-.86-2.11-1.39-.44-.52-.66-1.16-.66-1.92,0-.95.34-1.74,1.03-2.37.69-.63,1.71-.94,3.06-.94.66,0,1.48.09,2.45.27l.45.09v1.79c-1.2-.36-2.15-.54-2.87-.54s-1.21.15-1.55.45-.51.65-.51,1.05c0,.32.12.6.35.86.22.26.63.52,1.22.77l1.03.43c1.38.59,2.26,1.17,2.64,1.74.38.57.57,1.19.57,1.87s-.18,1.24-.53,1.79c-.35.55-.87.98-1.55,1.29-.68.31-1.44.47-2.28.47-.98,0-2.16-.23-3.56-.68Z"/><path class="cls-1" d="M36.84,39.25c-.66.18-1.23.27-1.71.27-1.06,0-1.9-.3-2.52-.92s-.93-1.48-.93-2.61v-6.92h-1.48v-1.61h1.48v-2.14l2.14-.21v2.34h3.08v1.61h-3.08v6.53c0,.82.16,1.42.48,1.77.32.36.82.54,1.52.54.28,0,.63-.05,1.03-.14v1.48Z"/><path class="cls-1" d="M46.07,37.75c-.65.59-1.28,1.03-1.91,1.32s-1.24.44-1.84.44c-.84,0-1.63-.27-2.35-.82s-1.09-1.35-1.09-2.41c0-1.16.51-2.11,1.52-2.87,1.01-.76,2.63-1.13,4.85-1.13h.51v-1.43c0-.57-.08-.98-.23-1.24-.16-.26-.4-.46-.72-.6-.33-.15-.73-.22-1.22-.22-1.12,0-2.35.35-3.68,1.04v-1.77c1.46-.59,2.83-.88,4.12-.88.7,0,1.35.11,1.94.33.59.22,1.06.57,1.41,1.04.35.47.53,1.24.53,2.29v5.34c0,.59.05.99.14,1.2.09.21.23.36.4.47s.37.16.59.16c.09,0,.23-.01.41-.04l.15,1.18c-.48.23-1.02.35-1.61.35-.39,0-.77-.13-1.13-.38-.36-.25-.62-.72-.78-1.39ZM45.76,36.59v-3.05l-.7-.02c-1.14,0-2.1.22-2.88.65s-1.16,1.02-1.16,1.77c0,.51.19.95.57,1.3.38.35.83.53,1.33.53.46,0,.92-.1,1.4-.3.47-.2.95-.49,1.44-.88Z"/><path class="cls-1" d="M56.49,39.25l-6.06-16.06h2.28l4.96,13.15,4.81-13.15h1.99l-5.83,16.06h-2.15Z"/><path class="cls-1" d="M78.69,38.42c-.66.34-1.25.59-1.76.75-.52.16-1.05.28-1.61.36-.56.08-1.16.11-1.81.11-2.71,0-4.69-.8-5.94-2.4-1.25-1.6-1.88-3.61-1.88-6.02s.65-4.49,1.95-6.07,3.3-2.37,5.99-2.37c1.43,0,3.11.24,5.04.71v2.14c-1.62-.56-2.74-.89-3.35-.99-.61-.1-1.19-.15-1.74-.15-1.92,0-3.32.65-4.18,1.96-.86,1.31-1.3,2.91-1.3,4.8s.5,3.57,1.49,4.79,2.4,1.83,4.23,1.83c.51,0,1.01-.04,1.51-.14.5-.09,1-.22,1.5-.4.5-.18,1.12-.46,1.86-.86v1.95Z"/><path class="cls-1" d="M50.66,1.2c-.33-.22-.76-.22-1.09,0l-4.78,3.26v-2.28c0-1.2-.98-2.17-2.17-2.17h-10.97c-1.2,0-2.17.98-2.17,2.17v10.86c0,1.2.98,2.17,2.17,2.17h10.86c1.2,0,2.17-.98,2.17-2.17v-2.28l4.78,3.26c.22.11.43.22.65.22s.33,0,.54-.11c.33-.22.54-.54.54-.98V2.17c0-.43-.22-.76-.54-.98ZM42.51,13.04h-10.86V2.17h10.86v10.86ZM49.03,10.97l-4.35-2.93v-.98l4.35-2.93s0,6.84,0,6.84Z"/></svg>