<?xml version="1.0" encoding="utf-8"?>
<!-- Generator: Adobe Illustrator 28.1.0, SVG Export Plug-In . SVG Version: 6.00 Build 0)  -->
<svg version="1.1" id="Layer_1" xmlns="http://www.w3.org/2000/svg" xmlns:xlink="http://www.w3.org/1999/xlink" x="0px" y="0px"
	 viewBox="0 0 24 24" style="enable-background:new 0 0 24 24;" xml:space="preserve">
<style type="text/css">
	.st0{fill:#FFFFFF;}
</style>
<path class="st0" d="M21.5,6.1c-0.3-0.2-0.7-0.2-1,0l-4.4,3V7c0-1.1-0.9-2-2-2H4C2.9,5,2,5.9,2,7v10c0,1.1,0.9,2,2,2h10
	c1.1,0,2-0.9,2-2v-2.1l4.4,3c0.2,0.1,0.4,0.2,0.6,0.2s0.3,0,0.5-0.1c0.3-0.2,0.5-0.5,0.5-0.9V7C22,6.6,21.8,6.3,21.5,6.1z M14,17H4
	V7h10V17z M20,15.1l-4-2.7v-0.9l4-2.7C20,8.8,20,15.1,20,15.1z"/>
</svg>
