<svg fill="none" height="48" viewBox="0 0 48 48" width="48" xmlns="http://www.w3.org/2000/svg"><path d="m18 7.5c-4.5901 0-8.24193.38308-10.75657.76907-3.03015.46512-5.1928 2.93463-5.41572 5.93143-.16946 2.2781-.32771 5.5446-.32771 9.7995s.15825 7.5214.32771 9.7995c.22292 2.9968 2.38557 5.4663 5.41572 5.9314 2.51464.386 6.16647.7691 10.75657.7691s8.2419-.3831 10.7566-.7691c3.0301-.4651 5.1928-2.9346 5.4157-5.9314.0425-.5718.0843-1.2058.1231-1.902 1.8091 1.0843 3.9647 2.2093 6.2993 3.0872 2.5188.9473 5.1041-.7284 5.4333-3.3175.2395-1.8825.472-4.5204.472-7.6672s-.2325-5.7847-.472-7.6672c-.3292-2.5891-2.9145-4.2648-5.4333-3.3175-2.3346.8779-4.4902 2.0029-6.2993 3.0872-.0388-.6962-.0806-1.3302-.1231-1.902-.2229-2.9968-2.3856-5.46631-5.4157-5.93143-2.5147-.38599-6.1665-.76907-10.7566-.76907z" fill="#000"/></svg>